<svg id="svg" version="1.1" xmlns="http://www.w3.org/2000/svg" xmlns:xlink="http://www.w3.org/1999/xlink" width="400" height="400" viewBox="0, 0, 400,400"><g id="svgg"><path id="path0" d="M70.733 58.394 C 52.766 58.507,37.982 58.690,37.878 58.800 C 37.775 58.910,38.114 59.810,38.632 60.800 C 39.150 61.790,39.945 63.358,40.398 64.283 C 40.852 65.209,41.413 66.084,41.644 66.227 C 41.876 66.371,42.418 67.233,42.849 68.144 C 43.918 70.406,45.556 73.274,46.193 74.000 C 46.483 74.330,47.012 75.230,47.368 76.000 C 47.724 76.770,48.628 78.390,49.376 79.600 C 51.070 82.337,51.562 83.192,53.174 86.200 C 53.881 87.520,54.710 88.877,55.015 89.215 C 55.320 89.553,55.856 90.453,56.206 91.215 C 56.556 91.977,57.459 93.590,58.214 94.800 C 58.968 96.010,59.875 97.630,60.231 98.400 C 60.586 99.170,61.199 100.160,61.592 100.600 C 61.986 101.040,62.440 101.850,62.601 102.400 C 62.763 102.950,63.143 103.684,63.446 104.031 C 63.750 104.377,64.449 105.502,64.999 106.531 C 65.550 107.559,66.445 109.230,66.989 110.245 C 67.532 111.260,68.207 112.364,68.489 112.699 C 69.005 113.313,70.053 115.202,71.585 118.283 C 72.046 119.209,72.600 120.077,72.817 120.211 C 73.035 120.345,73.486 121.111,73.821 121.913 C 74.156 122.715,74.679 123.647,74.983 123.985 C 75.287 124.323,76.266 125.981,77.159 127.669 C 78.052 129.357,79.236 131.407,79.791 132.225 C 80.346 133.043,80.800 133.929,80.800 134.194 C 80.800 134.459,81.162 135.003,81.603 135.403 C 82.045 135.803,82.614 136.821,82.867 137.665 C 83.120 138.509,83.487 139.200,83.684 139.200 C 83.880 139.200,84.285 139.785,84.584 140.500 C 84.883 141.215,85.484 142.253,85.919 142.807 C 86.355 143.360,87.013 144.440,87.382 145.207 C 88.444 147.412,89.892 149.988,90.443 150.652 C 90.947 151.260,92.131 153.353,93.467 156.000 C 93.856 156.770,94.539 157.940,94.986 158.600 C 96.031 160.143,96.904 161.688,98.206 164.292 C 98.781 165.443,99.428 166.493,99.643 166.626 C 99.858 166.759,100.316 167.573,100.660 168.434 C 101.005 169.295,101.432 170.000,101.610 170.000 C 101.788 170.000,102.243 170.810,102.621 171.800 C 102.999 172.790,103.450 173.600,103.622 173.600 C 103.794 173.600,104.342 174.500,104.839 175.600 C 105.336 176.700,105.868 177.600,106.022 177.600 C 106.176 177.600,106.684 178.490,107.152 179.577 C 107.620 180.665,108.177 181.662,108.390 181.794 C 108.603 181.925,109.151 182.791,109.609 183.717 C 110.066 184.642,110.970 186.300,111.618 187.400 C 112.267 188.500,113.163 190.158,113.610 191.083 C 114.057 192.009,114.618 192.888,114.857 193.035 C 115.095 193.183,115.635 194.083,116.057 195.035 C 116.478 195.988,116.993 196.872,117.200 197.000 C 117.407 197.128,117.945 197.991,118.394 198.917 C 119.362 200.911,120.236 202.462,121.532 204.481 C 122.611 206.163,123.529 207.799,124.852 210.400 C 125.355 211.390,125.989 212.427,126.259 212.704 C 126.530 212.982,126.978 213.837,127.256 214.604 C 127.534 215.372,127.906 216.000,128.084 216.000 C 128.390 216.000,128.817 216.744,131.200 221.433 C 131.750 222.515,132.345 223.463,132.523 223.541 C 132.701 223.619,133.276 224.654,133.801 225.841 C 134.326 227.028,134.919 228.000,135.117 228.000 C 135.316 228.000,135.775 228.675,136.137 229.500 C 136.499 230.325,137.430 232.080,138.204 233.400 C 138.979 234.720,139.975 236.558,140.418 237.483 C 140.860 238.409,141.413 239.284,141.644 239.427 C 141.876 239.571,142.418 240.433,142.849 241.344 C 143.918 243.606,145.556 246.474,146.193 247.200 C 146.483 247.530,147.012 248.430,147.368 249.200 C 147.724 249.970,148.628 251.590,149.376 252.800 C 151.070 255.537,151.562 256.392,153.174 259.400 C 153.881 260.720,154.710 262.077,155.015 262.415 C 155.320 262.753,155.856 263.653,156.206 264.415 C 156.556 265.177,157.458 266.790,158.211 268.000 C 158.963 269.210,159.929 270.945,160.356 271.856 C 160.784 272.767,161.324 273.629,161.556 273.773 C 161.787 273.916,162.343 274.791,162.790 275.717 C 163.237 276.642,164.221 278.480,164.977 279.800 C 165.733 281.120,166.727 282.958,167.187 283.883 C 167.647 284.809,168.213 285.684,168.444 285.827 C 168.676 285.971,169.225 286.833,169.663 287.744 C 170.969 290.461,172.220 292.645,173.137 293.811 C 173.612 294.414,174.000 295.129,174.000 295.400 C 174.000 295.671,174.358 296.347,174.795 296.903 C 175.233 297.459,176.309 299.270,177.186 300.926 C 178.064 302.583,179.236 304.607,179.791 305.425 C 180.346 306.243,180.800 307.134,180.800 307.407 C 180.800 307.679,181.095 308.147,181.455 308.445 C 181.815 308.744,182.452 309.711,182.870 310.594 C 183.957 312.887,185.493 315.537,186.411 316.704 C 186.845 317.256,187.200 318.022,187.200 318.405 C 187.200 318.788,187.499 319.349,187.865 319.651 C 188.231 319.953,188.866 320.958,189.276 321.883 C 189.687 322.809,190.193 323.672,190.400 323.800 C 190.607 323.928,191.154 324.791,191.614 325.717 C 192.800 328.105,194.224 330.674,195.055 331.926 C 195.973 333.311,197.363 335.799,198.278 337.696 C 199.325 339.866,200.726 339.791,201.944 337.500 C 202.441 336.565,203.370 334.900,204.008 333.800 C 204.646 332.700,205.540 331.042,205.995 330.117 C 206.450 329.191,206.993 328.328,207.201 328.200 C 207.409 328.071,207.883 327.299,208.255 326.483 C 208.627 325.667,209.240 324.640,209.617 324.200 C 209.993 323.760,210.517 322.726,210.781 321.903 C 211.044 321.080,211.492 320.270,211.775 320.103 C 212.058 319.936,212.674 318.990,213.144 318.000 C 213.614 317.010,214.530 315.390,215.178 314.400 C 215.827 313.410,216.734 311.796,217.194 310.814 C 217.655 309.832,218.180 308.932,218.363 308.814 C 218.546 308.696,219.214 307.636,219.848 306.459 C 220.481 305.281,221.488 303.481,222.084 302.459 C 222.680 301.436,223.540 299.842,223.995 298.917 C 224.450 297.991,225.013 297.116,225.244 296.973 C 225.476 296.829,226.016 295.967,226.444 295.056 C 226.871 294.145,227.834 292.410,228.583 291.200 C 229.332 289.990,230.329 288.280,230.798 287.400 C 232.766 283.706,233.595 282.266,234.107 281.651 C 234.406 281.293,234.981 280.235,235.386 279.300 C 235.790 278.365,236.250 277.600,236.406 277.600 C 236.563 277.600,237.001 276.790,237.379 275.800 C 237.757 274.810,238.238 274.000,238.447 274.000 C 238.657 274.000,239.187 273.235,239.625 272.300 C 240.063 271.365,241.036 269.610,241.787 268.400 C 242.538 267.190,243.540 265.358,244.013 264.329 C 244.487 263.299,245.104 262.369,245.385 262.261 C 245.667 262.153,246.017 261.586,246.164 261.000 C 246.311 260.414,246.894 259.237,247.459 258.383 C 248.702 256.505,249.687 254.752,250.742 252.544 C 251.178 251.633,251.724 250.771,251.956 250.627 C 252.187 250.484,252.746 249.609,253.198 248.683 C 253.649 247.758,254.558 246.100,255.218 245.000 C 255.878 243.900,256.787 242.224,257.238 241.276 C 257.689 240.328,258.299 239.460,258.593 239.347 C 258.887 239.234,259.245 238.660,259.389 238.071 C 259.533 237.482,260.064 236.370,260.568 235.600 C 262.205 233.103,263.173 231.433,263.961 229.744 C 264.386 228.833,264.924 227.971,265.156 227.827 C 265.387 227.684,265.948 226.809,266.401 225.883 C 267.779 223.067,269.057 220.822,269.697 220.093 C 270.032 219.712,270.437 218.950,270.599 218.400 C 270.760 217.850,271.223 217.038,271.627 216.595 C 272.031 216.152,272.650 215.162,273.002 214.395 C 273.354 213.628,274.258 212.010,275.011 210.800 C 275.763 209.590,276.754 207.795,277.213 206.811 C 277.673 205.827,278.316 204.747,278.644 204.411 C 279.243 203.797,280.441 201.660,281.956 198.500 C 282.405 197.565,282.929 196.800,283.122 196.800 C 283.314 196.800,283.716 196.059,284.015 195.154 C 284.314 194.249,284.883 193.305,285.279 193.058 C 285.676 192.810,286.000 192.316,286.000 191.960 C 286.000 191.603,286.452 190.646,287.004 189.833 C 287.556 189.019,288.411 187.614,288.904 186.710 C 289.397 185.806,290.280 184.242,290.866 183.233 C 292.019 181.253,293.355 178.957,295.195 175.800 C 295.836 174.700,296.734 173.042,297.191 172.117 C 297.649 171.191,298.213 170.316,298.444 170.173 C 298.676 170.029,299.216 169.167,299.644 168.256 C 300.071 167.345,301.042 165.610,301.800 164.400 C 302.558 163.190,303.548 161.480,304.000 160.600 C 304.452 159.720,305.436 158.010,306.188 156.800 C 306.940 155.590,307.949 153.792,308.431 152.805 C 308.912 151.818,309.533 150.828,309.809 150.605 C 310.086 150.382,310.518 149.547,310.771 148.748 C 311.023 147.950,311.583 146.977,312.015 146.586 C 312.447 146.196,312.800 145.714,312.800 145.516 C 312.800 145.182,315.584 140.299,316.287 139.400 C 316.459 139.180,317.011 138.190,317.512 137.200 C 318.014 136.210,319.072 134.320,319.863 133.000 C 322.467 128.654,323.168 127.419,324.000 125.717 C 324.453 124.791,325.013 123.916,325.244 123.773 C 325.476 123.629,326.016 122.767,326.444 121.856 C 326.871 120.945,327.834 119.210,328.583 118.000 C 329.332 116.790,330.329 115.080,330.798 114.200 C 332.766 110.506,333.595 109.066,334.107 108.451 C 334.406 108.093,334.981 107.035,335.386 106.100 C 335.790 105.165,336.260 104.400,336.430 104.400 C 336.599 104.400,336.941 103.784,337.189 103.032 C 337.438 102.280,337.926 101.427,338.275 101.138 C 338.624 100.848,339.249 99.889,339.665 99.006 C 340.081 98.123,341.036 96.410,341.787 95.200 C 342.538 93.990,343.545 92.145,344.025 91.100 C 344.506 90.055,345.035 89.200,345.201 89.200 C 345.367 89.200,345.736 88.615,346.021 87.900 C 346.306 87.185,346.847 86.150,347.223 85.600 C 348.383 83.900,349.987 81.078,350.778 79.344 C 351.194 78.433,351.724 77.571,351.956 77.427 C 352.187 77.284,352.750 76.409,353.205 75.483 C 353.660 74.558,354.558 72.900,355.200 71.800 C 355.842 70.700,356.748 69.024,357.213 68.076 C 357.678 67.128,358.304 66.258,358.605 66.143 C 358.905 66.028,359.265 65.417,359.403 64.785 C 359.542 64.154,360.008 63.190,360.438 62.642 C 362.192 60.413,362.519 58.886,361.293 58.653 C 360.692 58.539,333.290 58.378,300.400 58.294 C 267.510 58.210,253.320 58.244,268.867 58.371 C 284.414 58.497,297.235 58.702,297.360 58.826 C 297.600 59.067,295.686 63.037,293.419 67.000 C 290.980 71.262,289.991 72.968,289.011 74.600 C 288.483 75.480,287.493 77.190,286.810 78.400 C 286.128 79.610,284.561 82.310,283.329 84.400 C 282.096 86.490,280.686 88.920,280.195 89.800 C 279.097 91.769,275.188 98.558,273.287 101.800 C 272.512 103.120,271.530 104.830,271.104 105.600 C 270.678 106.370,269.812 107.900,269.179 109.000 C 268.547 110.100,267.571 111.810,267.010 112.800 C 266.449 113.790,264.919 116.400,263.609 118.600 C 262.299 120.800,260.677 123.590,260.003 124.800 C 259.329 126.010,258.333 127.765,257.789 128.700 C 256.252 131.342,255.108 133.319,253.765 135.653 C 252.446 137.947,248.678 144.433,246.640 147.920 C 244.038 152.369,243.215 153.844,242.578 155.200 C 242.216 155.970,241.669 156.884,241.361 157.231 C 241.053 157.577,240.384 158.657,239.874 159.631 C 239.364 160.604,237.982 163.020,236.804 165.000 C 235.625 166.980,234.137 169.590,233.496 170.800 C 232.855 172.010,232.102 173.270,231.824 173.600 C 231.545 173.930,231.043 174.740,230.708 175.400 C 230.374 176.060,229.781 177.230,229.391 178.000 C 229.002 178.770,228.440 179.684,228.142 180.031 C 227.845 180.377,227.182 181.457,226.668 182.431 C 226.155 183.404,224.681 186.000,223.394 188.200 C 222.107 190.400,220.634 193.046,220.121 194.080 C 219.608 195.114,219.016 196.067,218.805 196.197 C 218.595 196.327,218.049 197.191,217.591 198.117 C 216.549 200.228,215.543 202.020,214.584 203.472 C 214.175 204.092,213.459 205.320,212.993 206.200 C 212.527 207.080,211.187 209.420,210.014 211.400 C 206.785 216.852,205.157 219.655,204.323 221.200 C 201.324 226.752,201.442 226.596,200.174 226.720 C 198.908 226.844,197.925 225.449,193.729 217.581 C 193.250 216.683,192.538 215.465,192.148 214.874 C 191.758 214.283,191.070 213.147,190.619 212.349 C 187.285 206.445,185.263 202.911,183.438 199.800 C 182.277 197.820,180.191 194.220,178.803 191.800 C 175.342 185.767,175.105 185.356,173.384 182.400 C 172.551 180.970,170.954 178.227,169.835 176.305 C 167.852 172.900,166.695 170.884,164.611 167.200 C 164.051 166.210,163.064 164.500,162.418 163.400 C 161.773 162.300,160.683 160.410,159.997 159.200 C 159.310 157.990,158.355 156.345,157.874 155.543 C 156.870 153.871,154.729 150.138,153.432 147.800 C 152.944 146.920,151.490 144.400,150.201 142.200 C 147.939 138.339,146.631 136.098,144.302 132.090 C 143.697 131.051,142.837 129.442,142.390 128.517 C 141.943 127.591,141.407 126.728,141.200 126.600 C 140.993 126.472,140.487 125.609,140.076 124.683 C 139.666 123.758,139.031 122.753,138.665 122.451 C 138.299 122.149,138.000 121.698,138.000 121.448 C 138.000 121.199,136.994 119.286,135.765 117.197 C 134.535 115.109,132.903 112.320,132.139 111.000 C 131.374 109.680,130.575 108.330,130.364 108.000 C 130.153 107.670,129.619 106.642,129.179 105.717 C 128.738 104.791,128.223 103.938,128.035 103.822 C 127.847 103.705,127.310 102.843,126.843 101.905 C 126.375 100.967,124.921 98.400,123.610 96.200 C 122.300 94.000,120.637 91.146,119.914 89.858 C 119.191 88.569,118.150 86.743,117.600 85.799 C 116.659 84.184,115.894 82.855,113.285 78.308 C 110.038 72.646,108.222 69.533,106.806 67.200 C 104.098 62.739,102.434 59.122,102.900 58.712 C 102.955 58.663,115.870 58.525,131.600 58.404 L 160.200 58.184 131.800 58.186 C 116.180 58.188,88.700 58.281,70.733 58.394 M162.108 59.800 C 162.789 60.570,163.413 61.200,163.494 61.200 C 163.575 61.200,163.160 60.570,162.573 59.800 C 161.986 59.030,161.362 58.400,161.187 58.400 C 161.012 58.400,161.426 59.030,162.108 59.800 M237.253 60.042 C 236.732 60.701,236.397 61.330,236.508 61.441 C 236.741 61.674,238.400 59.662,238.400 59.146 C 238.400 58.641,238.298 58.721,237.253 60.042 M235.671 62.898 C 235.419 63.394,234.897 64.250,234.511 64.800 C 233.837 65.760,233.838 65.777,234.531 65.229 C 235.309 64.613,236.564 62.431,236.294 62.161 C 236.204 62.071,235.923 62.402,235.671 62.898 M164.641 64.100 C 164.776 64.485,165.019 64.800,165.182 64.800 C 165.345 64.800,165.673 65.205,165.912 65.700 C 166.151 66.195,166.358 66.385,166.373 66.122 C 166.388 65.860,165.949 65.140,165.398 64.522 C 164.801 63.853,164.495 63.683,164.641 64.100 M166.400 66.859 C 166.400 67.203,169.023 71.635,169.798 72.600 C 170.151 73.040,169.947 72.500,169.344 71.400 C 168.078 69.090,166.400 66.501,166.400 66.859 M231.211 70.774 C 230.938 71.434,230.463 72.181,230.157 72.436 C 229.851 72.690,229.600 73.080,229.600 73.303 C 229.600 73.776,230.860 72.220,231.573 70.866 C 231.843 70.352,231.984 69.851,231.886 69.753 C 231.788 69.655,231.484 70.114,231.211 70.774 M170.800 74.679 C 170.800 75.215,171.900 76.634,172.133 76.399 C 172.242 76.290,171.987 75.775,171.566 75.256 C 171.145 74.736,170.800 74.477,170.800 74.679 M228.100 76.016 C 226.837 77.575,226.971 77.933,228.250 76.414 C 228.827 75.728,229.232 75.108,229.150 75.036 C 229.067 74.964,228.595 75.405,228.100 76.016 M225.900 79.797 C 225.295 80.736,224.800 81.646,224.800 81.820 C 224.800 81.995,225.362 81.288,226.049 80.251 C 226.736 79.214,227.231 78.303,227.149 78.227 C 227.067 78.151,226.505 78.858,225.900 79.797 M174.812 81.407 C 174.798 81.874,176.721 84.800,177.042 84.800 C 177.159 84.800,176.910 84.305,176.488 83.700 C 176.067 83.095,175.520 82.240,175.273 81.800 C 175.026 81.360,174.819 81.183,174.812 81.407 M221.500 87.397 C 220.895 88.336,220.400 89.246,220.400 89.420 C 220.400 89.595,220.962 88.888,221.649 87.851 C 222.336 86.814,222.831 85.903,222.749 85.827 C 222.667 85.751,222.105 86.458,221.500 87.397 M177.600 86.742 C 177.600 86.926,177.960 87.402,178.400 87.800 C 178.840 88.198,179.200 88.356,179.200 88.151 C 179.200 87.946,178.840 87.470,178.400 87.093 C 177.960 86.716,177.600 86.558,177.600 86.742 M180.000 90.722 C 180.000 90.959,180.183 91.266,180.408 91.405 C 180.632 91.543,181.258 92.531,181.800 93.600 C 182.342 94.669,182.958 95.650,183.170 95.781 C 183.628 96.065,181.767 92.607,180.728 91.246 C 180.328 90.721,180.000 90.486,180.000 90.722 M216.641 95.663 C 215.694 97.015,215.862 97.483,216.846 96.233 C 217.311 95.642,217.599 95.066,217.486 94.953 C 217.374 94.840,216.993 95.160,216.641 95.663 M184.012 97.478 C 184.005 97.740,184.405 98.379,184.900 98.897 C 185.395 99.415,185.600 99.560,185.356 99.220 C 185.112 98.879,184.712 98.240,184.468 97.800 C 184.224 97.360,184.019 97.215,184.012 97.478 M215.196 98.497 C 214.026 100.256,213.936 100.582,214.946 99.400 C 215.837 98.357,216.237 97.600,215.896 97.600 C 215.839 97.600,215.524 98.004,215.196 98.497 M186.432 101.638 C 186.414 101.989,186.805 102.619,187.300 103.038 C 188.192 103.794,188.194 103.793,187.552 103.000 C 187.196 102.560,186.805 101.930,186.684 101.600 C 186.497 101.091,186.458 101.096,186.432 101.638 M212.700 102.588 C 211.744 103.903,211.814 104.336,212.800 103.200 C 213.240 102.693,213.600 102.125,213.600 101.939 C 213.600 101.435,213.470 101.529,212.700 102.588 M190.800 109.412 C 190.800 109.562,191.250 110.219,191.800 110.873 C 192.350 111.527,192.800 111.939,192.800 111.788 C 192.800 111.638,192.350 110.981,191.800 110.327 C 191.250 109.673,190.800 109.261,190.800 109.412 M208.029 110.654 C 207.573 111.234,207.200 111.899,207.200 112.132 C 207.200 112.365,207.650 111.945,208.200 111.200 C 208.750 110.455,209.200 109.790,209.200 109.722 C 209.200 109.370,208.770 109.712,208.029 110.654 M192.800 112.597 C 192.800 113.087,194.472 115.661,194.665 115.468 C 194.761 115.372,194.381 114.618,193.820 113.791 C 193.259 112.965,192.800 112.427,192.800 112.597 M206.143 114.124 C 205.029 115.818,204.718 116.400,204.923 116.400 C 205.184 116.400,207.279 113.146,207.121 112.988 C 207.045 112.911,206.605 113.423,206.143 114.124 M195.481 117.400 C 195.848 118.170,196.289 118.800,196.461 118.800 C 196.632 118.800,196.401 118.170,195.947 117.400 C 195.493 116.630,195.052 116.000,194.967 116.000 C 194.882 116.000,195.113 116.630,195.481 117.400 M203.857 118.100 L 203.142 119.400 203.971 118.456 C 204.687 117.640,205.050 116.800,204.686 116.800 C 204.624 116.800,204.251 117.385,203.857 118.100 M197.201 120.081 C 197.188 122.544,201.586 123.852,202.332 121.607 C 202.480 121.160,202.358 121.185,201.836 121.707 C 200.666 122.877,198.910 122.599,197.996 121.100 C 197.560 120.385,197.202 119.927,197.201 120.081 " stroke="none" fill="#4dbb8c" fill-rule="evenodd"></path><path id="path1" d="M103.700 58.682 C 102.307 58.951,103.071 61.047,106.806 67.200 C 108.222 69.533,110.038 72.646,113.285 78.308 C 115.894 82.855,116.659 84.184,117.600 85.799 C 118.150 86.743,119.191 88.569,119.914 89.858 C 120.637 91.146,122.300 94.000,123.610 96.200 C 124.921 98.400,126.375 100.967,126.843 101.905 C 127.310 102.843,127.847 103.705,128.035 103.822 C 128.223 103.938,128.738 104.791,129.179 105.717 C 129.619 106.642,130.153 107.670,130.364 108.000 C 130.575 108.330,131.374 109.680,132.139 111.000 C 132.903 112.320,134.535 115.109,135.765 117.197 C 136.994 119.286,138.000 121.199,138.000 121.448 C 138.000 121.698,138.299 122.149,138.665 122.451 C 139.031 122.753,139.666 123.758,140.076 124.683 C 140.487 125.609,140.993 126.472,141.200 126.600 C 141.407 126.728,141.943 127.591,142.390 128.517 C 142.837 129.442,143.697 131.051,144.302 132.090 C 146.631 136.098,147.939 138.339,150.201 142.200 C 151.490 144.400,152.944 146.920,153.432 147.800 C 154.729 150.138,156.870 153.871,157.874 155.543 C 158.355 156.345,159.310 157.990,159.997 159.200 C 160.683 160.410,161.773 162.300,162.418 163.400 C 163.064 164.500,164.051 166.210,164.611 167.200 C 166.695 170.884,167.852 172.900,169.835 176.305 C 175.682 186.347,174.821 184.858,178.803 191.800 C 180.191 194.220,182.277 197.820,183.438 199.800 C 185.263 202.911,187.285 206.445,190.619 212.349 C 191.070 213.147,191.758 214.283,192.148 214.874 C 192.538 215.465,193.250 216.683,193.729 217.581 C 197.925 225.449,198.908 226.844,200.174 226.720 C 201.442 226.596,201.324 226.752,204.323 221.200 C 205.157 219.655,206.785 216.852,210.014 211.400 C 211.187 209.420,212.527 207.080,212.993 206.200 C 213.459 205.320,214.175 204.092,214.584 203.472 C 215.543 202.020,216.549 200.228,217.591 198.117 C 218.049 197.191,218.595 196.327,218.805 196.197 C 219.016 196.067,219.608 195.114,220.121 194.080 C 220.634 193.046,222.107 190.400,223.394 188.200 C 224.681 186.000,226.155 183.404,226.668 182.431 C 227.182 181.457,227.845 180.377,228.142 180.031 C 228.440 179.684,228.979 178.815,229.341 178.100 C 229.704 177.385,230.296 176.215,230.659 175.500 C 231.021 174.785,231.545 173.930,231.824 173.600 C 232.102 173.270,232.855 172.010,233.496 170.800 C 234.137 169.590,235.625 166.980,236.804 165.000 C 237.982 163.020,239.364 160.604,239.874 159.631 C 240.384 158.657,241.053 157.577,241.361 157.231 C 241.669 156.884,242.216 155.970,242.578 155.200 C 243.215 153.844,244.038 152.369,246.640 147.920 C 248.678 144.433,252.446 137.947,253.765 135.653 C 255.108 133.319,256.252 131.342,257.789 128.700 C 258.333 127.765,259.329 126.010,260.003 124.800 C 260.677 123.590,262.299 120.800,263.609 118.600 C 264.919 116.400,266.449 113.790,267.010 112.800 C 267.571 111.810,268.547 110.100,269.179 109.000 C 269.812 107.900,270.678 106.370,271.104 105.600 C 271.530 104.830,272.512 103.120,273.287 101.800 C 275.188 98.558,279.097 91.769,280.195 89.800 C 280.686 88.920,282.096 86.490,283.329 84.400 C 284.561 82.310,286.128 79.610,286.810 78.400 C 287.493 77.190,288.483 75.480,289.011 74.600 C 289.991 72.968,290.980 71.262,293.419 67.000 C 294.174 65.680,295.427 63.340,296.202 61.800 L 297.613 59.000 296.707 58.740 C 294.854 58.208,239.263 58.362,238.822 58.900 C 237.226 60.848,236.479 61.967,236.030 63.087 C 235.746 63.794,235.261 64.583,234.952 64.840 C 234.643 65.096,234.032 66.047,233.594 66.953 C 233.155 67.859,232.267 69.500,231.618 70.600 C 230.970 71.700,230.066 73.358,229.609 74.283 C 229.151 75.209,228.587 76.084,228.356 76.227 C 228.124 76.371,227.584 77.233,227.156 78.144 C 226.729 79.055,225.758 80.790,225.000 82.000 C 224.242 83.210,223.249 84.920,222.793 85.800 C 221.617 88.073,219.730 91.329,219.315 91.800 C 219.121 92.020,218.545 93.010,218.033 94.000 C 216.482 97.003,215.832 98.129,214.692 99.793 C 214.091 100.669,213.600 101.601,213.600 101.864 C 213.600 102.127,213.351 102.592,213.046 102.897 C 212.742 103.201,212.088 104.249,211.593 105.225 C 211.098 106.201,210.562 107.090,210.403 107.200 C 210.244 107.310,209.719 108.210,209.237 109.200 C 208.239 111.249,207.425 112.707,206.000 115.000 C 204.617 117.224,203.778 118.720,202.803 120.697 C 201.396 123.547,198.563 123.591,197.439 120.780 C 197.081 119.885,196.605 118.939,196.381 118.677 C 195.665 117.837,192.800 112.858,192.800 112.453 C 192.800 112.237,192.375 111.553,191.855 110.931 C 191.335 110.309,190.774 109.350,190.609 108.800 C 190.443 108.250,189.998 107.440,189.619 107.000 C 189.240 106.560,188.704 105.628,188.428 104.929 C 188.152 104.230,187.583 103.347,187.163 102.967 C 186.744 102.587,186.400 101.958,186.400 101.569 C 186.400 101.180,185.971 100.351,185.446 99.727 C 184.921 99.104,184.197 97.965,183.838 97.197 C 183.479 96.428,182.568 94.810,181.814 93.600 C 181.059 92.390,180.154 90.772,179.802 90.005 C 179.450 89.238,178.831 88.248,178.427 87.805 C 178.023 87.362,177.560 86.550,177.399 86.000 C 177.237 85.450,176.860 84.719,176.560 84.376 C 175.886 83.607,174.281 80.799,173.142 78.400 C 172.672 77.410,172.118 76.535,171.911 76.456 C 171.703 76.376,171.185 75.566,170.759 74.656 C 170.333 73.745,169.268 71.830,168.393 70.400 C 167.517 68.970,166.511 67.125,166.157 66.300 C 165.803 65.475,165.375 64.800,165.206 64.800 C 165.037 64.800,164.527 63.945,164.073 62.900 C 163.618 61.855,162.706 60.415,162.046 59.700 L 160.845 58.400 132.723 58.454 C 117.255 58.484,104.195 58.587,103.700 58.682 " stroke="none" fill="#445564" fill-rule="evenodd"></path><path id="path2" d="M0.000 200.000 L 0.000 400.000 200.000 400.000 L 400.000 400.000 400.000 200.000 L 400.000 0.000 200.000 0.000 L 0.000 0.000 0.000 200.000 M161.869 57.214 C 162.575 57.460,163.451 58.281,164.029 59.237 C 164.563 60.122,165.492 61.601,166.093 62.523 C 166.694 63.445,167.189 64.411,167.193 64.669 C 167.197 64.927,167.609 65.647,168.109 66.269 C 168.609 66.891,169.338 68.030,169.729 68.800 C 171.241 71.778,172.313 73.642,172.897 74.307 C 173.232 74.688,173.637 75.450,173.799 76.000 C 173.960 76.550,174.413 77.360,174.806 77.800 C 175.199 78.240,175.853 79.246,176.260 80.034 C 176.667 80.823,177.450 82.346,178.000 83.418 C 178.550 84.491,179.315 85.690,179.700 86.084 C 180.085 86.478,180.400 87.038,180.400 87.329 C 180.400 87.620,180.935 88.565,181.589 89.429 C 182.243 90.293,182.783 91.308,182.789 91.684 C 182.795 92.061,183.144 92.691,183.565 93.084 C 183.986 93.478,184.635 94.565,185.008 95.500 C 185.382 96.435,185.825 97.200,185.994 97.200 C 186.163 97.200,186.689 98.100,187.162 99.200 C 187.635 100.300,188.178 101.200,188.368 101.200 C 188.558 101.200,189.012 101.875,189.378 102.700 C 189.744 103.525,190.742 105.370,191.596 106.800 C 192.450 108.230,193.437 110.023,193.790 110.785 C 194.142 111.547,194.702 112.470,195.033 112.836 C 195.695 113.568,197.149 116.162,198.208 118.500 C 199.223 120.742,200.915 120.654,202.045 118.300 C 203.643 114.970,204.672 113.126,205.076 112.865 C 205.302 112.719,205.874 111.790,206.348 110.800 C 206.821 109.810,207.860 107.920,208.655 106.600 C 210.871 102.922,211.897 101.131,212.666 99.600 C 213.052 98.830,213.608 97.907,213.902 97.549 C 214.499 96.820,215.935 94.243,217.137 91.744 C 217.575 90.833,218.124 89.971,218.356 89.827 C 218.587 89.684,219.145 88.809,219.595 87.883 C 220.044 86.958,221.025 85.210,221.773 84.000 C 222.522 82.790,223.609 80.900,224.187 79.800 C 225.776 76.781,226.614 75.320,227.700 73.680 C 228.242 72.860,228.814 71.787,228.970 71.295 C 229.126 70.803,229.407 70.400,229.594 70.400 C 229.781 70.400,230.245 69.584,230.626 68.587 C 231.007 67.589,231.537 66.644,231.804 66.487 C 232.071 66.329,232.681 65.390,233.159 64.400 C 234.722 61.163,235.520 59.821,236.726 58.400 L 237.914 57.000 300.657 57.144 C 342.228 57.239,363.569 57.424,363.900 57.693 C 364.580 58.244,364.531 59.793,363.815 60.387 C 363.494 60.654,363.113 61.261,362.969 61.736 C 362.825 62.211,362.294 63.151,361.790 63.825 C 361.286 64.499,360.583 65.669,360.229 66.425 C 359.875 67.181,358.968 68.790,358.214 70.000 C 357.459 71.210,356.554 72.828,356.202 73.595 C 355.850 74.362,355.231 75.352,354.827 75.795 C 354.423 76.238,353.966 77.016,353.811 77.525 C 353.657 78.033,353.170 79.023,352.729 79.725 C 349.825 84.347,349.200 85.415,349.200 85.755 C 349.200 85.965,348.885 86.484,348.500 86.909 C 348.115 87.333,347.440 88.377,347.000 89.229 C 345.234 92.647,341.841 98.613,341.550 98.811 C 341.380 98.927,340.913 99.737,340.514 100.611 C 340.114 101.485,339.446 102.708,339.029 103.328 C 338.052 104.782,337.049 106.580,336.058 108.656 C 335.622 109.567,335.076 110.429,334.844 110.573 C 334.613 110.716,334.062 111.591,333.621 112.517 C 333.181 113.442,332.590 114.553,332.310 114.985 C 331.443 116.319,329.879 118.929,329.020 120.475 C 327.878 122.529,326.207 125.438,324.810 127.800 C 324.160 128.900,323.276 130.545,322.847 131.456 C 322.418 132.367,321.856 133.242,321.600 133.400 C 321.344 133.558,320.783 134.433,320.355 135.344 C 319.926 136.255,318.505 138.800,317.195 141.000 C 315.886 143.200,314.347 145.900,313.775 147.000 C 313.203 148.100,312.121 149.990,311.370 151.200 C 310.619 152.410,309.706 154.075,309.341 154.900 C 308.977 155.725,308.539 156.400,308.369 156.400 C 308.198 156.400,307.592 157.345,307.022 158.500 C 306.452 159.655,304.913 162.400,303.602 164.600 C 302.291 166.800,300.942 169.140,300.605 169.800 C 300.267 170.460,299.275 172.170,298.400 173.600 C 297.526 175.030,296.520 176.830,296.165 177.600 C 295.810 178.370,295.260 179.293,294.943 179.651 C 294.343 180.327,293.054 182.585,291.614 185.483 C 291.154 186.409,290.607 187.272,290.400 187.400 C 290.193 187.528,289.655 188.391,289.206 189.317 C 288.266 191.254,287.435 192.738,286.024 195.000 C 284.410 197.588,283.694 198.885,282.767 200.900 C 282.287 201.945,281.742 202.800,281.558 202.800 C 281.373 202.800,280.835 203.700,280.362 204.800 C 279.889 205.900,279.363 206.800,279.194 206.800 C 279.025 206.800,278.593 207.475,278.234 208.300 C 277.362 210.302,275.720 213.205,275.021 213.976 C 274.711 214.319,274.080 215.410,273.618 216.400 C 273.156 217.390,272.166 219.190,271.417 220.400 C 270.668 221.610,269.671 223.320,269.202 224.200 C 267.702 227.017,266.587 228.970,265.819 230.128 C 264.924 231.479,263.858 233.360,263.058 235.000 C 262.736 235.660,262.116 236.653,261.681 237.207 C 261.245 237.760,260.595 238.840,260.237 239.607 C 259.878 240.373,258.968 241.990,258.214 243.200 C 257.459 244.410,256.554 246.028,256.202 246.795 C 255.850 247.562,255.231 248.552,254.827 248.995 C 254.423 249.438,253.957 250.250,253.791 250.800 C 253.626 251.350,253.020 252.523,252.445 253.407 C 250.642 256.178,250.412 256.564,249.713 258.000 C 249.338 258.770,248.759 259.729,248.425 260.132 C 248.091 260.534,247.364 261.747,246.809 262.826 C 245.101 266.148,241.869 271.788,241.546 272.011 C 241.378 272.127,240.913 272.937,240.514 273.811 C 240.114 274.685,239.446 275.908,239.029 276.528 C 238.090 277.927,237.045 279.779,236.192 281.558 C 235.834 282.305,235.289 283.168,234.981 283.476 C 234.674 283.784,234.061 284.792,233.621 285.718 C 233.180 286.643,232.590 287.753,232.310 288.185 C 231.443 289.519,229.879 292.129,229.020 293.675 C 227.836 295.806,226.170 298.702,224.805 301.000 C 224.153 302.100,223.249 303.758,222.798 304.683 C 222.346 305.609,221.787 306.484,221.556 306.627 C 221.324 306.771,220.791 307.633,220.372 308.544 C 219.953 309.455,219.383 310.553,219.105 310.985 C 217.913 312.837,216.568 315.098,215.884 316.400 C 214.568 318.904,212.635 322.312,210.956 325.084 C 210.052 326.578,209.184 328.205,209.029 328.700 C 208.873 329.195,208.576 329.600,208.368 329.600 C 208.160 329.600,207.539 330.545,206.988 331.700 C 206.436 332.855,205.133 335.260,204.093 337.044 C 200.179 343.753,199.322 343.586,195.214 335.317 C 194.754 334.391,194.207 333.528,194.000 333.400 C 193.793 333.272,193.254 332.409,192.804 331.483 C 192.354 330.558,190.914 328.000,189.605 325.800 C 188.295 323.600,186.874 321.055,186.445 320.144 C 186.017 319.233,185.476 318.371,185.244 318.227 C 185.013 318.084,184.454 317.209,184.002 316.283 C 183.551 315.358,182.642 313.700,181.982 312.600 C 181.322 311.500,180.421 309.842,179.979 308.917 C 179.538 307.991,178.982 307.112,178.743 306.965 C 178.505 306.817,177.957 305.955,177.527 305.048 C 177.097 304.142,176.139 302.410,175.397 301.200 C 174.656 299.990,173.616 298.190,173.087 297.200 C 172.557 296.210,171.511 294.349,170.762 293.065 C 169.105 290.225,167.607 287.640,166.119 285.059 C 165.503 283.991,164.550 282.344,164.000 281.400 C 163.450 280.456,162.498 278.809,161.885 277.741 C 157.997 270.969,156.556 268.487,155.187 266.200 C 154.528 265.100,153.627 263.442,153.183 262.517 C 152.740 261.591,152.187 260.716,151.956 260.573 C 151.724 260.429,151.182 259.567,150.751 258.656 C 149.682 256.394,148.044 253.526,147.407 252.800 C 147.117 252.470,146.591 251.570,146.237 250.800 C 145.884 250.030,144.515 247.600,143.197 245.400 C 141.878 243.200,140.394 240.590,139.899 239.600 C 139.405 238.610,138.781 237.620,138.513 237.400 C 138.245 237.180,137.730 236.280,137.368 235.400 C 137.006 234.520,136.574 233.710,136.408 233.600 C 136.241 233.490,135.625 232.500,135.038 231.400 C 134.451 230.300,133.482 228.556,132.885 227.525 C 129.613 221.873,127.301 217.816,126.518 216.352 C 126.032 215.444,125.375 214.409,125.057 214.051 C 124.740 213.693,124.186 212.770,123.827 212.000 C 122.920 210.053,121.235 207.118,120.614 206.400 C 120.328 206.070,119.976 205.410,119.831 204.933 C 119.686 204.456,119.217 203.620,118.788 203.076 C 118.360 202.531,117.291 200.730,116.414 199.074 C 115.536 197.417,114.364 195.393,113.809 194.575 C 113.254 193.757,112.800 192.866,112.800 192.593 C 112.800 192.321,112.505 191.853,112.145 191.555 C 111.785 191.256,111.144 190.289,110.721 189.406 C 109.825 187.537,108.986 186.030,107.600 183.800 C 106.193 181.536,105.370 180.066,104.364 178.015 C 103.882 177.034,103.282 176.025,103.031 175.774 C 102.780 175.523,102.238 174.571,101.826 173.659 C 101.415 172.746,100.948 172.000,100.788 172.000 C 100.628 172.000,100.264 171.415,99.979 170.700 C 99.694 169.985,99.098 168.875,98.656 168.234 C 97.755 166.928,96.467 164.639,95.214 162.117 C 94.754 161.191,94.207 160.328,94.000 160.200 C 93.793 160.072,93.253 159.209,92.800 158.283 C 91.956 156.555,91.171 155.176,88.655 151.000 C 87.860 149.680,86.842 147.842,86.393 146.917 C 85.944 145.991,85.407 145.128,85.200 145.000 C 84.993 144.872,84.450 144.009,83.995 143.083 C 83.540 142.158,82.642 140.500,82.000 139.400 C 81.358 138.300,80.460 136.642,80.005 135.717 C 79.550 134.791,78.993 133.919,78.767 133.780 C 78.542 133.640,77.962 132.758,77.479 131.819 C 76.635 130.180,75.342 127.877,73.200 124.201 C 72.650 123.257,71.607 121.431,70.882 120.142 C 70.156 118.854,69.040 116.900,68.401 115.800 C 67.762 114.700,66.846 113.080,66.366 112.200 C 65.885 111.320,65.348 110.506,65.171 110.392 C 64.995 110.278,64.474 109.378,64.015 108.392 C 63.555 107.406,62.566 105.610,61.817 104.400 C 61.068 103.190,60.084 101.480,59.630 100.600 C 59.177 99.720,57.715 97.200,56.381 95.000 C 55.048 92.800,53.602 90.242,53.167 89.317 C 52.733 88.391,52.187 87.516,51.956 87.373 C 51.724 87.229,51.182 86.367,50.751 85.456 C 49.682 83.194,48.044 80.326,47.407 79.600 C 47.117 79.270,46.592 78.370,46.241 77.600 C 45.890 76.830,44.330 74.040,42.775 71.400 C 41.219 68.760,39.698 66.015,39.394 65.300 C 39.090 64.585,38.673 64.000,38.469 64.000 C 38.264 64.000,37.862 63.415,37.576 62.700 C 37.289 61.985,36.727 60.971,36.327 60.446 C 35.510 59.374,35.441 58.871,35.991 58.000 C 36.540 57.132,159.431 56.364,161.869 57.214 " stroke="none" fill="#fbfbfb" fill-rule="evenodd"></path><path id="path3" d="M69.285 57.195 C 40.614 57.374,36.322 57.477,35.991 58.000 C 35.441 58.871,35.510 59.374,36.327 60.446 C 36.727 60.971,37.289 61.985,37.576 62.700 C 37.862 63.415,38.264 64.000,38.469 64.000 C 38.673 64.000,39.090 64.585,39.394 65.300 C 39.698 66.015,41.219 68.760,42.775 71.400 C 44.330 74.040,45.890 76.830,46.241 77.600 C 46.592 78.370,47.117 79.270,47.407 79.600 C 48.044 80.326,49.682 83.194,50.751 85.456 C 51.182 86.367,51.724 87.229,51.956 87.373 C 52.187 87.516,52.733 88.391,53.167 89.317 C 53.602 90.242,55.048 92.800,56.381 95.000 C 57.715 97.200,59.177 99.720,59.630 100.600 C 60.084 101.480,61.068 103.190,61.817 104.400 C 62.566 105.610,63.555 107.406,64.015 108.392 C 64.474 109.378,64.995 110.278,65.171 110.392 C 65.348 110.506,65.885 111.320,66.366 112.200 C 66.846 113.080,67.762 114.700,68.401 115.800 C 69.040 116.900,70.156 118.854,70.882 120.142 C 71.607 121.431,72.650 123.257,73.200 124.201 C 75.342 127.877,76.635 130.180,77.479 131.819 C 77.962 132.758,78.542 133.640,78.767 133.780 C 78.993 133.919,79.550 134.791,80.005 135.717 C 80.460 136.642,81.358 138.300,82.000 139.400 C 82.642 140.500,83.540 142.158,83.995 143.083 C 84.450 144.009,84.993 144.872,85.200 145.000 C 85.407 145.128,85.944 145.991,86.393 146.917 C 86.842 147.842,87.860 149.680,88.655 151.000 C 91.171 155.176,91.956 156.555,92.800 158.283 C 93.253 159.209,93.793 160.072,94.000 160.200 C 94.207 160.328,94.754 161.191,95.214 162.117 C 96.467 164.639,97.755 166.928,98.656 168.234 C 99.098 168.875,99.694 169.985,99.979 170.700 C 100.264 171.415,100.628 172.000,100.788 172.000 C 100.948 172.000,101.415 172.746,101.826 173.659 C 102.238 174.571,102.780 175.523,103.031 175.774 C 103.282 176.025,103.882 177.034,104.364 178.015 C 105.370 180.066,106.193 181.536,107.600 183.800 C 108.986 186.030,109.825 187.537,110.721 189.406 C 111.144 190.289,111.785 191.256,112.145 191.555 C 112.505 191.853,112.800 192.321,112.800 192.593 C 112.800 192.866,113.254 193.757,113.809 194.575 C 114.364 195.393,115.536 197.417,116.414 199.074 C 117.291 200.730,118.360 202.531,118.788 203.076 C 119.217 203.620,119.686 204.456,119.831 204.933 C 119.976 205.410,120.328 206.070,120.614 206.400 C 121.235 207.118,122.920 210.053,123.827 212.000 C 124.186 212.770,124.740 213.693,125.057 214.051 C 125.375 214.409,126.032 215.444,126.518 216.352 C 127.301 217.816,129.613 221.873,132.885 227.525 C 133.482 228.556,134.451 230.300,135.038 231.400 C 135.625 232.500,136.241 233.490,136.408 233.600 C 136.574 233.710,137.006 234.520,137.368 235.400 C 137.730 236.280,138.245 237.180,138.513 237.400 C 138.781 237.620,139.405 238.610,139.899 239.600 C 140.394 240.590,141.878 243.200,143.197 245.400 C 144.515 247.600,145.884 250.030,146.237 250.800 C 146.591 251.570,147.117 252.470,147.407 252.800 C 148.044 253.526,149.682 256.394,150.751 258.656 C 151.182 259.567,151.724 260.429,151.956 260.573 C 152.187 260.716,152.740 261.591,153.183 262.517 C 153.627 263.442,154.528 265.100,155.187 266.200 C 156.556 268.487,157.997 270.969,161.885 277.741 C 162.498 278.809,163.450 280.456,164.000 281.400 C 164.550 282.344,165.503 283.991,166.119 285.059 C 167.607 287.640,169.105 290.225,170.762 293.065 C 171.511 294.349,172.557 296.210,173.087 297.200 C 173.616 298.190,174.656 299.990,175.397 301.200 C 176.139 302.410,177.097 304.142,177.527 305.048 C 177.957 305.955,178.505 306.817,178.743 306.965 C 178.982 307.112,179.538 307.991,179.979 308.917 C 180.421 309.842,181.322 311.500,181.982 312.600 C 182.642 313.700,183.551 315.358,184.002 316.283 C 184.454 317.209,185.013 318.084,185.244 318.227 C 185.476 318.371,186.017 319.233,186.445 320.144 C 186.874 321.055,188.295 323.600,189.605 325.800 C 190.914 328.000,192.354 330.558,192.804 331.483 C 193.254 332.409,193.793 333.272,194.000 333.400 C 194.207 333.528,194.754 334.391,195.214 335.317 C 199.322 343.586,200.179 343.753,204.093 337.044 C 205.133 335.260,206.436 332.855,206.988 331.700 C 207.539 330.545,208.160 329.600,208.368 329.600 C 208.576 329.600,208.873 329.195,209.029 328.700 C 209.184 328.205,210.052 326.578,210.956 325.084 C 212.635 322.312,214.568 318.904,215.884 316.400 C 216.568 315.098,217.913 312.837,219.105 310.985 C 219.383 310.553,219.953 309.455,220.372 308.544 C 220.791 307.633,221.324 306.771,221.556 306.627 C 221.787 306.484,222.346 305.609,222.798 304.683 C 223.249 303.758,224.153 302.100,224.805 301.000 C 226.170 298.702,227.836 295.806,229.020 293.675 C 229.879 292.129,231.443 289.519,232.310 288.185 C 232.590 287.753,233.180 286.643,233.621 285.718 C 234.061 284.792,234.674 283.784,234.981 283.476 C 235.289 283.168,235.834 282.305,236.192 281.558 C 237.045 279.779,238.090 277.927,239.029 276.528 C 239.446 275.908,240.114 274.685,240.514 273.811 C 240.913 272.937,241.378 272.127,241.546 272.011 C 241.869 271.788,245.101 266.148,246.809 262.826 C 247.364 261.747,248.091 260.534,248.425 260.132 C 248.759 259.729,249.338 258.770,249.713 258.000 C 250.412 256.564,250.642 256.178,252.445 253.407 C 253.020 252.523,253.626 251.350,253.791 250.800 C 253.957 250.250,254.423 249.438,254.827 248.995 C 255.231 248.552,255.850 247.562,256.202 246.795 C 256.554 246.028,257.459 244.410,258.214 243.200 C 258.968 241.990,259.878 240.373,260.237 239.607 C 260.595 238.840,261.245 237.760,261.681 237.207 C 262.116 236.653,262.736 235.660,263.058 235.000 C 263.858 233.360,264.924 231.479,265.819 230.128 C 266.587 228.970,267.702 227.017,269.202 224.200 C 269.671 223.320,270.668 221.610,271.417 220.400 C 272.166 219.190,273.156 217.390,273.618 216.400 C 274.080 215.410,274.711 214.319,275.021 213.976 C 275.720 213.205,277.362 210.302,278.234 208.300 C 278.593 207.475,279.025 206.800,279.194 206.800 C 279.363 206.800,279.889 205.900,280.362 204.800 C 280.835 203.700,281.373 202.800,281.558 202.800 C 281.742 202.800,282.287 201.945,282.767 200.900 C 283.694 198.885,284.410 197.588,286.024 195.000 C 287.435 192.738,288.266 191.254,289.206 189.317 C 289.655 188.391,290.193 187.528,290.400 187.400 C 290.607 187.272,291.154 186.409,291.614 185.483 C 293.054 182.585,294.343 180.327,294.943 179.651 C 295.260 179.293,295.810 178.370,296.165 177.600 C 296.520 176.830,297.526 175.030,298.400 173.600 C 299.275 172.170,300.267 170.460,300.605 169.800 C 300.942 169.140,302.291 166.800,303.602 164.600 C 304.913 162.400,306.452 159.655,307.022 158.500 C 307.592 157.345,308.198 156.400,308.369 156.400 C 308.539 156.400,308.977 155.725,309.341 154.900 C 309.706 154.075,310.619 152.410,311.370 151.200 C 312.121 149.990,313.203 148.100,313.775 147.000 C 314.347 145.900,315.886 143.200,317.195 141.000 C 318.505 138.800,319.926 136.255,320.355 135.344 C 320.783 134.433,321.344 133.558,321.600 133.400 C 321.856 133.242,322.418 132.367,322.847 131.456 C 323.276 130.545,324.160 128.900,324.810 127.800 C 326.207 125.438,327.878 122.529,329.020 120.475 C 329.879 118.929,331.443 116.319,332.310 114.985 C 332.590 114.553,333.181 113.442,333.621 112.517 C 334.062 111.591,334.613 110.716,334.844 110.573 C 335.076 110.429,335.622 109.567,336.058 108.656 C 337.049 106.580,338.052 104.782,339.029 103.328 C 339.446 102.708,340.114 101.485,340.514 100.611 C 340.913 99.737,341.380 98.927,341.550 98.811 C 341.841 98.613,345.234 92.647,347.000 89.229 C 347.440 88.377,348.115 87.333,348.500 86.909 C 348.885 86.484,349.200 85.965,349.200 85.755 C 349.200 85.415,349.825 84.347,352.729 79.725 C 353.170 79.023,353.657 78.033,353.811 77.525 C 353.966 77.016,354.423 76.238,354.827 75.795 C 355.231 75.352,355.850 74.362,356.202 73.595 C 356.554 72.828,357.459 71.210,358.214 70.000 C 358.968 68.790,359.875 67.181,360.229 66.425 C 360.583 65.669,361.286 64.499,361.790 63.825 C 362.294 63.151,362.825 62.211,362.969 61.736 C 363.113 61.261,363.494 60.654,363.815 60.387 C 364.545 59.782,364.575 58.243,363.870 57.658 C 363.496 57.348,353.600 57.186,330.343 57.109 C 298.856 57.005,297.387 57.032,298.236 57.700 C 299.066 58.353,301.200 58.400,329.863 58.405 C 346.768 58.408,360.999 58.518,361.487 58.649 C 362.495 58.919,362.057 60.584,360.438 62.642 C 360.008 63.190,359.542 64.154,359.403 64.785 C 359.265 65.417,358.905 66.028,358.605 66.143 C 358.304 66.258,357.678 67.128,357.213 68.076 C 356.748 69.024,355.842 70.700,355.200 71.800 C 354.558 72.900,353.660 74.558,353.205 75.483 C 352.750 76.409,352.187 77.284,351.956 77.427 C 351.724 77.571,351.194 78.433,350.778 79.344 C 349.987 81.078,348.383 83.900,347.223 85.600 C 346.847 86.150,346.306 87.185,346.021 87.900 C 345.736 88.615,345.367 89.200,345.201 89.200 C 345.035 89.200,344.506 90.055,344.025 91.100 C 343.545 92.145,342.538 93.990,341.787 95.200 C 341.036 96.410,340.081 98.123,339.665 99.006 C 339.249 99.889,338.624 100.848,338.275 101.138 C 337.926 101.427,337.438 102.280,337.189 103.032 C 336.941 103.784,336.599 104.400,336.430 104.400 C 336.260 104.400,335.790 105.165,335.386 106.100 C 334.981 107.035,334.406 108.093,334.107 108.451 C 333.595 109.066,332.766 110.506,330.798 114.200 C 330.329 115.080,329.332 116.790,328.583 118.000 C 327.834 119.210,326.871 120.945,326.444 121.856 C 326.016 122.767,325.476 123.629,325.244 123.773 C 325.013 123.916,324.453 124.791,324.000 125.717 C 323.168 127.419,322.467 128.654,319.863 133.000 C 319.072 134.320,318.014 136.210,317.512 137.200 C 317.011 138.190,316.459 139.180,316.287 139.400 C 315.584 140.299,312.800 145.182,312.800 145.516 C 312.800 145.714,312.447 146.196,312.015 146.586 C 311.583 146.977,311.023 147.950,310.771 148.748 C 310.518 149.547,310.086 150.382,309.809 150.605 C 309.533 150.828,308.912 151.818,308.431 152.805 C 307.949 153.792,306.940 155.590,306.188 156.800 C 305.436 158.010,304.452 159.720,304.000 160.600 C 303.548 161.480,302.558 163.190,301.800 164.400 C 301.042 165.610,300.071 167.345,299.644 168.256 C 299.216 169.167,298.676 170.029,298.444 170.173 C 298.213 170.316,297.649 171.191,297.191 172.117 C 296.734 173.042,295.836 174.700,295.195 175.800 C 293.355 178.957,292.019 181.253,290.866 183.233 C 290.280 184.242,289.397 185.806,288.904 186.710 C 288.411 187.614,287.556 189.019,287.004 189.833 C 286.452 190.646,286.000 191.603,286.000 191.960 C 286.000 192.316,285.676 192.810,285.279 193.058 C 284.883 193.305,284.314 194.249,284.015 195.154 C 283.716 196.059,283.314 196.800,283.122 196.800 C 282.929 196.800,282.405 197.565,281.956 198.500 C 280.441 201.660,279.243 203.797,278.644 204.411 C 278.316 204.747,277.673 205.827,277.213 206.811 C 276.754 207.795,275.763 209.590,275.011 210.800 C 274.258 212.010,273.354 213.628,273.002 214.395 C 272.650 215.162,272.031 216.152,271.627 216.595 C 271.223 217.038,270.760 217.850,270.599 218.400 C 270.437 218.950,270.032 219.712,269.697 220.093 C 269.057 220.822,267.779 223.067,266.401 225.883 C 265.948 226.809,265.387 227.684,265.156 227.827 C 264.924 227.971,264.386 228.833,263.961 229.744 C 263.173 231.433,262.205 233.103,260.568 235.600 C 260.064 236.370,259.533 237.482,259.389 238.071 C 259.245 238.660,258.887 239.234,258.593 239.347 C 258.299 239.460,257.689 240.328,257.238 241.276 C 256.787 242.224,255.878 243.900,255.218 245.000 C 254.558 246.100,253.649 247.758,253.198 248.683 C 252.746 249.609,252.187 250.484,251.956 250.627 C 251.724 250.771,251.178 251.633,250.742 252.544 C 249.687 254.752,248.702 256.505,247.459 258.383 C 246.894 259.237,246.311 260.414,246.164 261.000 C 246.017 261.586,245.667 262.153,245.385 262.261 C 245.104 262.369,244.487 263.299,244.013 264.329 C 243.540 265.358,242.538 267.190,241.787 268.400 C 241.036 269.610,240.063 271.365,239.625 272.300 C 239.187 273.235,238.657 274.000,238.447 274.000 C 238.238 274.000,237.757 274.810,237.379 275.800 C 237.001 276.790,236.563 277.600,236.406 277.600 C 236.250 277.600,235.790 278.365,235.386 279.300 C 234.981 280.235,234.406 281.293,234.107 281.651 C 233.595 282.266,232.766 283.706,230.798 287.400 C 230.329 288.280,229.332 289.990,228.583 291.200 C 227.834 292.410,226.871 294.145,226.444 295.056 C 226.016 295.967,225.476 296.829,225.244 296.973 C 225.013 297.116,224.450 297.991,223.995 298.917 C 223.540 299.842,222.680 301.436,222.084 302.459 C 221.488 303.481,220.481 305.281,219.848 306.459 C 219.214 307.636,218.546 308.696,218.363 308.814 C 218.180 308.932,217.655 309.832,217.194 310.814 C 216.734 311.796,215.827 313.410,215.178 314.400 C 214.530 315.390,213.614 317.010,213.144 318.000 C 212.674 318.990,212.058 319.936,211.775 320.103 C 211.492 320.270,211.044 321.080,210.781 321.903 C 210.517 322.726,209.993 323.760,209.617 324.200 C 209.240 324.640,208.627 325.667,208.255 326.483 C 207.883 327.299,207.409 328.071,207.201 328.200 C 206.993 328.328,206.450 329.191,205.995 330.117 C 205.540 331.042,204.646 332.700,204.008 333.800 C 203.370 334.900,202.441 336.565,201.944 337.500 C 200.726 339.791,199.325 339.866,198.278 337.696 C 197.363 335.799,195.973 333.311,195.055 331.926 C 194.224 330.674,192.800 328.105,191.614 325.717 C 191.154 324.791,190.607 323.928,190.400 323.800 C 190.193 323.672,189.687 322.809,189.276 321.883 C 188.866 320.958,188.231 319.953,187.865 319.651 C 187.499 319.349,187.200 318.788,187.200 318.405 C 187.200 318.022,186.845 317.256,186.411 316.704 C 185.493 315.537,183.957 312.887,182.870 310.594 C 182.452 309.711,181.815 308.744,181.455 308.445 C 181.095 308.147,180.800 307.679,180.800 307.407 C 180.800 307.134,180.346 306.243,179.791 305.425 C 179.236 304.607,178.064 302.583,177.186 300.926 C 176.309 299.270,175.233 297.459,174.795 296.903 C 174.358 296.347,174.000 295.671,174.000 295.400 C 174.000 295.129,173.612 294.414,173.137 293.811 C 172.220 292.645,170.969 290.461,169.663 287.744 C 169.225 286.833,168.676 285.971,168.444 285.827 C 168.213 285.684,167.647 284.809,167.187 283.883 C 166.727 282.958,165.733 281.120,164.977 279.800 C 164.221 278.480,163.237 276.642,162.790 275.717 C 162.343 274.791,161.787 273.916,161.556 273.773 C 161.324 273.629,160.784 272.767,160.356 271.856 C 159.929 270.945,158.963 269.210,158.211 268.000 C 157.458 266.790,156.556 265.177,156.206 264.415 C 155.856 263.653,155.320 262.753,155.015 262.415 C 154.710 262.077,153.881 260.720,153.174 259.400 C 151.562 256.392,151.070 255.537,149.376 252.800 C 148.628 251.590,147.724 249.970,147.368 249.200 C 147.012 248.430,146.483 247.530,146.193 247.200 C 145.556 246.474,143.918 243.606,142.849 241.344 C 142.418 240.433,141.876 239.571,141.644 239.427 C 141.413 239.284,140.860 238.409,140.418 237.483 C 139.975 236.558,138.979 234.720,138.204 233.400 C 137.430 232.080,136.499 230.325,136.137 229.500 C 135.775 228.675,135.316 228.000,135.117 228.000 C 134.919 228.000,134.326 227.028,133.801 225.841 C 133.276 224.654,132.701 223.619,132.523 223.541 C 132.345 223.463,131.750 222.515,131.200 221.433 C 128.817 216.744,128.390 216.000,128.084 216.000 C 127.906 216.000,127.534 215.372,127.256 214.604 C 126.978 213.837,126.530 212.982,126.259 212.704 C 125.989 212.427,125.355 211.390,124.852 210.400 C 123.529 207.799,122.611 206.163,121.532 204.481 C 120.236 202.462,119.362 200.911,118.394 198.917 C 117.945 197.991,117.407 197.128,117.200 197.000 C 116.993 196.872,116.478 195.988,116.057 195.035 C 115.635 194.083,115.095 193.183,114.857 193.035 C 114.618 192.888,114.057 192.009,113.610 191.083 C 113.163 190.158,112.267 188.500,111.618 187.400 C 110.970 186.300,110.066 184.642,109.609 183.717 C 109.151 182.791,108.603 181.925,108.390 181.794 C 108.177 181.662,107.620 180.665,107.152 179.577 C 106.684 178.490,106.176 177.600,106.022 177.600 C 105.868 177.600,105.336 176.700,104.839 175.600 C 104.342 174.500,103.794 173.600,103.622 173.600 C 103.450 173.600,102.999 172.790,102.621 171.800 C 102.243 170.810,101.788 170.000,101.610 170.000 C 101.432 170.000,101.005 169.295,100.660 168.434 C 100.316 167.573,99.858 166.759,99.643 166.626 C 99.428 166.493,98.781 165.443,98.206 164.292 C 96.904 161.688,96.031 160.143,94.986 158.600 C 94.539 157.940,93.856 156.770,93.467 156.000 C 92.131 153.353,90.947 151.260,90.443 150.652 C 89.892 149.988,88.444 147.412,87.382 145.207 C 87.013 144.440,86.355 143.360,85.919 142.807 C 85.484 142.253,84.883 141.215,84.584 140.500 C 84.285 139.785,83.880 139.200,83.684 139.200 C 83.487 139.200,83.120 138.509,82.867 137.665 C 82.614 136.821,82.045 135.803,81.603 135.403 C 81.162 135.003,80.800 134.459,80.800 134.194 C 80.800 133.929,80.346 133.043,79.791 132.225 C 79.236 131.407,78.052 129.357,77.159 127.669 C 76.266 125.981,75.287 124.323,74.983 123.985 C 74.679 123.647,74.156 122.715,73.821 121.913 C 73.486 121.111,73.035 120.345,72.817 120.211 C 72.600 120.077,72.046 119.209,71.585 118.283 C 70.053 115.202,69.005 113.313,68.489 112.699 C 68.207 112.364,67.532 111.260,66.989 110.245 C 66.445 109.230,65.550 107.559,64.999 106.531 C 64.449 105.502,63.750 104.377,63.446 104.031 C 63.143 103.684,62.763 102.950,62.601 102.400 C 62.440 101.850,61.986 101.040,61.592 100.600 C 61.199 100.160,60.586 99.170,60.231 98.400 C 59.875 97.630,58.968 96.010,58.214 94.800 C 57.459 93.590,56.556 91.977,56.206 91.215 C 55.856 90.453,55.320 89.553,55.015 89.215 C 54.710 88.877,53.881 87.520,53.174 86.200 C 51.562 83.192,51.070 82.337,49.376 79.600 C 48.628 78.390,47.724 76.770,47.368 76.000 C 47.012 75.230,46.483 74.330,46.193 74.000 C 45.556 73.274,43.918 70.406,42.849 68.144 C 42.418 67.233,41.876 66.371,41.644 66.227 C 41.413 66.084,40.852 65.209,40.398 64.283 C 39.945 63.358,39.151 61.790,38.635 60.800 C 37.333 58.303,35.252 58.460,70.211 58.428 C 100.909 58.400,101.433 58.387,102.107 57.600 C 102.484 57.160,102.659 56.843,102.496 56.895 C 102.333 56.948,87.388 57.083,69.285 57.195 " stroke="none" fill="#9cdcbc" fill-rule="evenodd"></path><path id="path4" d="M102.229 57.429 C 101.883 57.774,101.600 58.089,101.600 58.129 C 101.600 58.168,115.027 58.200,131.438 58.200 L 161.276 58.200 162.269 59.400 C 162.815 60.060,163.593 61.345,163.998 62.256 C 164.403 63.167,164.944 64.042,165.200 64.200 C 165.456 64.358,166.010 65.233,166.430 66.144 C 166.849 67.055,168.269 69.600,169.584 71.800 C 170.900 74.000,172.397 76.610,172.913 77.600 C 173.428 78.590,174.670 80.750,175.673 82.400 C 176.676 84.050,177.622 85.805,177.775 86.300 C 177.928 86.795,178.209 87.200,178.398 87.200 C 178.587 87.200,179.208 88.145,179.778 89.300 C 180.348 90.455,181.887 93.200,183.198 95.400 C 184.510 97.600,185.904 100.030,186.298 100.800 C 186.691 101.570,187.354 102.708,187.771 103.328 C 188.748 104.782,189.751 106.580,190.742 108.656 C 191.178 109.567,191.724 110.429,191.956 110.573 C 192.187 110.716,192.738 111.591,193.179 112.517 C 193.619 113.442,194.167 114.470,194.395 114.800 C 194.623 115.130,195.675 116.930,196.732 118.800 C 200.072 124.707,200.933 124.173,207.000 112.429 C 207.440 111.577,208.077 110.547,208.416 110.140 C 208.754 109.733,209.345 108.770,209.729 108.000 C 210.112 107.230,210.952 105.700,211.594 104.600 C 212.237 103.500,213.266 101.726,213.881 100.659 C 214.497 99.591,215.450 97.944,216.000 97.000 C 216.550 96.056,217.540 94.346,218.200 93.200 C 218.860 92.054,219.850 90.344,220.400 89.400 C 220.950 88.456,221.897 86.809,222.504 85.741 C 223.111 84.674,224.142 82.900,224.795 81.800 C 225.447 80.700,226.351 79.042,226.802 78.117 C 227.254 77.191,227.818 76.312,228.057 76.165 C 228.295 76.017,228.841 75.155,229.270 74.248 C 229.699 73.342,230.754 71.430,231.614 70.000 C 232.475 68.570,233.555 66.680,234.014 65.800 C 238.588 57.043,234.427 57.923,270.520 58.078 C 297.659 58.195,298.804 58.170,297.967 57.493 C 297.146 56.828,295.300 56.792,267.502 56.893 L 237.912 57.000 236.725 58.400 C 235.520 59.822,234.722 61.165,233.159 64.400 C 232.681 65.390,232.071 66.329,231.804 66.487 C 231.537 66.644,231.007 67.589,230.626 68.587 C 230.245 69.584,229.781 70.400,229.594 70.400 C 229.407 70.400,229.126 70.803,228.970 71.295 C 228.814 71.787,228.242 72.860,227.700 73.680 C 226.614 75.320,225.776 76.781,224.187 79.800 C 223.609 80.900,222.522 82.790,221.773 84.000 C 221.025 85.210,220.044 86.958,219.595 87.883 C 219.145 88.809,218.587 89.684,218.356 89.827 C 218.124 89.971,217.575 90.833,217.137 91.744 C 215.935 94.243,214.499 96.820,213.902 97.549 C 213.608 97.907,213.052 98.830,212.666 99.600 C 211.897 101.131,210.871 102.922,208.655 106.600 C 207.860 107.920,206.821 109.810,206.348 110.800 C 205.874 111.790,205.302 112.719,205.076 112.865 C 204.672 113.126,203.643 114.970,202.045 118.300 C 200.915 120.654,199.223 120.742,198.208 118.500 C 197.149 116.162,195.695 113.568,195.033 112.836 C 194.702 112.470,194.142 111.547,193.790 110.785 C 193.437 110.023,192.450 108.230,191.596 106.800 C 190.742 105.370,189.744 103.525,189.378 102.700 C 189.012 101.875,188.558 101.200,188.368 101.200 C 188.178 101.200,187.635 100.300,187.162 99.200 C 186.689 98.100,186.163 97.200,185.994 97.200 C 185.825 97.200,185.382 96.435,185.008 95.500 C 184.635 94.565,183.986 93.478,183.565 93.084 C 183.144 92.691,182.795 92.061,182.789 91.684 C 182.783 91.308,182.243 90.293,181.589 89.429 C 180.935 88.565,180.400 87.620,180.400 87.329 C 180.400 87.038,180.085 86.478,179.700 86.084 C 179.315 85.690,178.550 84.491,178.000 83.418 C 177.450 82.346,176.667 80.823,176.260 80.034 C 175.853 79.246,175.199 78.240,174.806 77.800 C 174.413 77.360,173.960 76.550,173.799 76.000 C 173.637 75.450,173.232 74.688,172.897 74.307 C 172.313 73.642,171.241 71.778,169.729 68.800 C 169.338 68.030,168.609 66.891,168.109 66.269 C 167.609 65.647,167.197 64.927,167.193 64.669 C 167.189 64.411,166.694 63.445,166.093 62.523 C 165.492 61.601,164.563 60.122,164.029 59.237 C 163.451 58.281,162.575 57.460,161.869 57.214 C 159.695 56.456,102.997 56.660,102.229 57.429 " stroke="none" fill="#acb4bc" fill-rule="evenodd"></path></g></svg>